<svg width="155" height="50" viewBox="0 0 155 50" fill="none" xmlns="http://www.w3.org/2000/svg">
<g clip-path="url(#clip0_8_27)">
<path d="M48.255 4.15332L42.1359 21H39.6349L46.6808 2.51562H48.2931L48.255 4.15332ZM53.3839 21L47.2521 4.15332L47.214 2.51562H48.8263L55.8976 21H53.3839ZM53.0665 14.1572V16.1631H42.6818V14.1572H53.0665ZM60.3663 9.9043V26.2812H58.005V7.26367H60.1632L60.3663 9.9043ZM69.6212 14.0176V14.2842C69.6212 15.2829 69.5027 16.2096 69.2657 17.0645C69.0288 17.9108 68.6818 18.6471 68.2247 19.2734C67.7762 19.8997 67.2218 20.3864 66.5616 20.7334C65.9015 21.0804 65.144 21.2539 64.2892 21.2539C63.4174 21.2539 62.6473 21.11 61.9786 20.8223C61.31 20.5345 60.743 20.1156 60.2775 19.5654C59.812 19.0153 59.4396 18.3551 59.1603 17.585C58.8894 16.8148 58.7032 15.9473 58.6017 14.9824V13.5605C58.7032 12.5449 58.8937 11.6351 59.173 10.8311C59.4523 10.027 59.8204 9.34147 60.2775 8.77441C60.743 8.19889 61.3058 7.76302 61.9659 7.4668C62.6261 7.16211 63.3878 7.00977 64.2511 7.00977C65.1144 7.00977 65.8803 7.17904 66.549 7.51758C67.2176 7.84766 67.7804 8.32161 68.2374 8.93945C68.6945 9.55729 69.0372 10.2979 69.2657 11.1611C69.5027 12.016 69.6212 12.9681 69.6212 14.0176ZM67.2599 14.2842V14.0176C67.2599 13.332 67.1879 12.6888 67.0441 12.0879C66.9002 11.4785 66.6759 10.9453 66.3712 10.4883C66.075 10.0228 65.6941 9.65885 65.2286 9.39648C64.7631 9.12565 64.2088 8.99023 63.5656 8.99023C62.9731 8.99023 62.4568 9.0918 62.0167 9.29492C61.5851 9.49805 61.2169 9.77311 60.9122 10.1201C60.6075 10.4587 60.3579 10.848 60.1632 11.2881C59.977 11.7197 59.8374 12.1683 59.7443 12.6338V15.9219C59.9135 16.5143 60.1505 17.0729 60.4552 17.5977C60.7599 18.1139 61.1661 18.5329 61.674 18.8545C62.1818 19.1676 62.8208 19.3242 63.5909 19.3242C64.2257 19.3242 64.7716 19.193 65.2286 18.9307C65.6941 18.6598 66.075 18.2917 66.3712 17.8262C66.6759 17.3607 66.9002 16.8275 67.0441 16.2266C67.1879 15.6172 67.2599 14.9697 67.2599 14.2842ZM75.1691 1.5V21H72.8077V1.5H75.1691ZM81.4913 7.26367V21H79.13V7.26367H81.4913ZM78.9523 3.62012C78.9523 3.23926 79.0665 2.91764 79.295 2.65527C79.532 2.3929 79.879 2.26172 80.3361 2.26172C80.7846 2.26172 81.1274 2.3929 81.3644 2.65527C81.6098 2.91764 81.7325 3.23926 81.7325 3.62012C81.7325 3.98405 81.6098 4.2972 81.3644 4.55957C81.1274 4.81348 80.7846 4.94043 80.3361 4.94043C79.879 4.94043 79.532 4.81348 79.295 4.55957C79.0665 4.2972 78.9523 3.98405 78.9523 3.62012ZM87.6232 1.5V21H85.2618V1.5H87.6232ZM96.0148 7.26367L90.0226 13.6748L86.671 17.1533L86.4806 14.6523L88.88 11.7832L93.1456 7.26367H96.0148ZM93.8693 21L88.9689 14.4492L90.1876 12.3545L96.6368 21H93.8693ZM106.539 18.6514V11.5801C106.539 11.0384 106.429 10.5687 106.209 10.1709C105.998 9.76465 105.676 9.4515 105.244 9.23145C104.813 9.01139 104.279 8.90137 103.645 8.90137C103.052 8.90137 102.532 9.00293 102.083 9.20605C101.643 9.40918 101.296 9.67578 101.042 10.0059C100.797 10.3359 100.674 10.6914 100.674 11.0723H98.3253C98.3253 10.5814 98.4523 10.0947 98.7062 9.6123C98.9601 9.12988 99.324 8.69401 99.798 8.30469C100.28 7.9069 100.856 7.59375 101.525 7.36523C102.202 7.12826 102.955 7.00977 103.784 7.00977C104.783 7.00977 105.663 7.17904 106.425 7.51758C107.195 7.85612 107.796 8.36816 108.228 9.05371C108.668 9.73079 108.888 10.5814 108.888 11.6055V18.0039C108.888 18.4609 108.926 18.9476 109.002 19.4639C109.087 19.9801 109.209 20.4245 109.37 20.7969V21H106.92C106.802 20.7292 106.708 20.3695 106.641 19.9209C106.573 19.4639 106.539 19.0407 106.539 18.6514ZM106.945 12.6719L106.971 14.3223H104.597C103.928 14.3223 103.332 14.3773 102.807 14.4873C102.282 14.5889 101.842 14.7454 101.486 14.957C101.131 15.1686 100.86 15.4352 100.674 15.7568C100.488 16.07 100.395 16.4382 100.395 16.8613C100.395 17.293 100.492 17.6865 100.687 18.042C100.881 18.3975 101.173 18.681 101.563 18.8926C101.96 19.0957 102.447 19.1973 103.023 19.1973C103.742 19.1973 104.377 19.0449 104.927 18.7402C105.477 18.4355 105.913 18.0632 106.234 17.623C106.565 17.1829 106.742 16.7555 106.768 16.3408L107.771 17.4707C107.711 17.8262 107.551 18.2197 107.288 18.6514C107.026 19.083 106.675 19.4977 106.234 19.8955C105.803 20.2848 105.287 20.6107 104.686 20.873C104.093 21.127 103.425 21.2539 102.68 21.2539C101.749 21.2539 100.932 21.0719 100.23 20.708C99.5356 20.3441 98.9939 19.8574 98.6046 19.248C98.2238 18.6302 98.0333 17.9404 98.0333 17.1787C98.0333 16.4424 98.1772 15.7949 98.465 15.2363C98.7527 14.6693 99.1674 14.1995 99.7091 13.8271C100.251 13.4463 100.902 13.1585 101.664 12.9639C102.426 12.7692 103.276 12.6719 104.216 12.6719H106.945ZM120.58 17.3564C120.58 17.0179 120.504 16.7048 120.352 16.417C120.208 16.1208 119.907 15.8542 119.45 15.6172C119.002 15.3717 118.325 15.1602 117.419 14.9824C116.657 14.8216 115.968 14.6312 115.35 14.4111C114.74 14.1911 114.22 13.9245 113.788 13.6113C113.365 13.2982 113.039 12.93 112.811 12.5068C112.582 12.0837 112.468 11.5885 112.468 11.0215C112.468 10.4798 112.586 9.96777 112.823 9.48535C113.069 9.00293 113.412 8.57552 113.852 8.20312C114.3 7.83073 114.838 7.53874 115.464 7.32715C116.09 7.11556 116.789 7.00977 117.559 7.00977C118.659 7.00977 119.598 7.20443 120.377 7.59375C121.156 7.98307 121.752 8.50358 122.167 9.15527C122.582 9.7985 122.789 10.5137 122.789 11.3008H120.441C120.441 10.9199 120.326 10.5518 120.098 10.1963C119.878 9.83236 119.552 9.5319 119.12 9.29492C118.697 9.05794 118.177 8.93945 117.559 8.93945C116.907 8.93945 116.378 9.04102 115.972 9.24414C115.574 9.4388 115.282 9.68848 115.096 9.99316C114.918 10.2979 114.829 10.6195 114.829 10.958C114.829 11.2119 114.872 11.4404 114.956 11.6436C115.049 11.8382 115.21 12.0202 115.439 12.1895C115.667 12.3503 115.989 12.5026 116.403 12.6465C116.818 12.7904 117.347 12.9342 117.99 13.0781C119.116 13.332 120.043 13.6367 120.771 13.9922C121.498 14.3477 122.04 14.7835 122.396 15.2998C122.751 15.8161 122.929 16.4424 122.929 17.1787C122.929 17.7796 122.802 18.3298 122.548 18.8291C122.303 19.3285 121.943 19.7601 121.469 20.124C121.003 20.4795 120.445 20.7588 119.793 20.9619C119.15 21.1566 118.426 21.2539 117.622 21.2539C116.412 21.2539 115.388 21.0381 114.55 20.6064C113.712 20.1748 113.077 19.6162 112.646 18.9307C112.214 18.2451 111.998 17.5215 111.998 16.7598H114.359C114.393 17.403 114.58 17.915 114.918 18.2959C115.257 18.6683 115.671 18.9349 116.162 19.0957C116.653 19.248 117.14 19.3242 117.622 19.3242C118.265 19.3242 118.803 19.2396 119.234 19.0703C119.675 18.901 120.009 18.6683 120.237 18.3721C120.466 18.0758 120.58 17.7373 120.58 17.3564ZM128.566 7.26367V21H126.204V7.26367H128.566ZM126.026 3.62012C126.026 3.23926 126.141 2.91764 126.369 2.65527C126.606 2.3929 126.953 2.26172 127.41 2.26172C127.859 2.26172 128.202 2.3929 128.439 2.65527C128.684 2.91764 128.807 3.23926 128.807 3.62012C128.807 3.98405 128.684 4.2972 128.439 4.55957C128.202 4.81348 127.859 4.94043 127.41 4.94043C126.953 4.94043 126.606 4.81348 126.369 4.55957C126.141 4.2972 126.026 3.98405 126.026 3.62012ZM43.8624 24.5156V43H41.4122V24.5156H43.8624ZM55.0216 24.5156L47.3409 33.1357L43.0245 37.6172L42.6183 35.002L45.8683 31.4219L52.0763 24.5156H55.0216ZM52.6603 43L45.8175 33.9863L47.2775 32.0439L55.5802 43H52.6603ZM62.7531 43.2539C61.7967 43.2539 60.9292 43.0931 60.1505 42.7715C59.3803 42.4414 58.7159 41.9801 58.1573 41.3877C57.6072 40.7952 57.184 40.0928 56.8878 39.2803C56.5916 38.4678 56.4435 37.5791 56.4435 36.6143V36.0811C56.4435 34.9639 56.6085 33.9694 56.9386 33.0977C57.2687 32.2174 57.7172 31.4727 58.2843 30.8633C58.8514 30.2539 59.4946 29.7926 60.214 29.4795C60.9334 29.1663 61.6782 29.0098 62.4484 29.0098C63.4301 29.0098 64.2765 29.179 64.9874 29.5176C65.7068 29.8561 66.295 30.3301 66.7521 30.9395C67.2091 31.5404 67.5476 32.2513 67.7677 33.0723C67.9878 33.8848 68.0978 34.7734 68.0978 35.7383V36.792H57.84V34.875H65.7491V34.6973C65.7153 34.0879 65.5883 33.4954 65.3683 32.9199C65.1567 32.3444 64.8182 31.8704 64.3527 31.498C63.8872 31.1257 63.2524 30.9395 62.4484 30.9395C61.9152 30.9395 61.4243 31.0537 60.9757 31.2822C60.5271 31.5023 60.142 31.8324 59.8204 32.2725C59.4988 32.7126 59.2491 33.25 59.0714 33.8848C58.8937 34.5195 58.8048 35.2516 58.8048 36.0811V36.6143C58.8048 37.266 58.8937 37.8796 59.0714 38.4551C59.2576 39.0221 59.5242 39.5215 59.8712 39.9531C60.2267 40.3848 60.6541 40.7233 61.1534 40.9688C61.6613 41.2142 62.2368 41.3369 62.88 41.3369C63.7094 41.3369 64.4119 41.1676 64.9874 40.8291C65.5629 40.4906 66.0665 40.0378 66.4982 39.4707L67.92 40.6006C67.6238 41.0492 67.2472 41.4766 66.7902 41.8828C66.3331 42.2891 65.7703 42.6191 65.1017 42.873C64.4415 43.127 63.6587 43.2539 62.7531 43.2539ZM79.2443 39.8262V29.2637H81.6056V43H79.3585L79.2443 39.8262ZM79.6886 36.9316L80.6661 36.9062C80.6661 37.8203 80.5688 38.6667 80.3741 39.4453C80.1879 40.2155 79.8833 40.8841 79.4601 41.4512C79.0369 42.0182 78.4825 42.4626 77.797 42.7842C77.1115 43.0973 76.2778 43.2539 75.296 43.2539C74.6274 43.2539 74.0138 43.1566 73.4552 42.9619C72.9051 42.7673 72.4311 42.4668 72.0333 42.0605C71.6355 41.6543 71.3266 41.1253 71.1066 40.4736C70.895 39.8219 70.7892 39.0391 70.7892 38.125V29.2637H73.1378V38.1504C73.1378 38.7682 73.2055 39.2803 73.3409 39.6865C73.4848 40.0843 73.6753 40.4017 73.9122 40.6387C74.1577 40.8672 74.4285 41.028 74.7247 41.1211C75.0294 41.2142 75.3426 41.2607 75.6642 41.2607C76.6629 41.2607 77.4542 41.0703 78.0382 40.6895C78.6222 40.3001 79.0411 39.7796 79.295 39.1279C79.5574 38.4678 79.6886 37.7357 79.6886 36.9316ZM93.2853 40.6514V33.5801C93.2853 33.0384 93.1753 32.5687 92.9552 32.1709C92.7436 31.7646 92.422 31.4515 91.9904 31.2314C91.5587 31.0114 91.0255 30.9014 90.3907 30.9014C89.7983 30.9014 89.2778 31.0029 88.8292 31.2061C88.3891 31.4092 88.0421 31.6758 87.7882 32.0059C87.5428 32.3359 87.42 32.6914 87.42 33.0723H85.0714C85.0714 32.5814 85.1984 32.0947 85.4523 31.6123C85.7062 31.1299 86.0701 30.694 86.5441 30.3047C87.0265 29.9069 87.602 29.5938 88.2706 29.3652C88.9477 29.1283 89.701 29.0098 90.5304 29.0098C91.5291 29.0098 92.4093 29.179 93.171 29.5176C93.9412 29.8561 94.5421 30.3682 94.9738 31.0537C95.4139 31.7308 95.6339 32.5814 95.6339 33.6055V40.0039C95.6339 40.4609 95.672 40.9476 95.7482 41.4639C95.8328 41.9801 95.9555 42.4245 96.1163 42.7969V43H93.6661C93.5476 42.7292 93.4545 42.3695 93.3868 41.9209C93.3191 41.4639 93.2853 41.0407 93.2853 40.6514ZM93.6915 34.6719L93.7169 36.3223H91.3429C90.6743 36.3223 90.0776 36.3773 89.5529 36.4873C89.0281 36.5889 88.588 36.7454 88.2325 36.957C87.8771 37.1686 87.6062 37.4352 87.42 37.7568C87.2338 38.07 87.1407 38.4382 87.1407 38.8613C87.1407 39.293 87.2381 39.6865 87.4327 40.042C87.6274 40.3975 87.9194 40.681 88.3087 40.8926C88.7065 41.0957 89.1932 41.1973 89.7687 41.1973C90.4881 41.1973 91.1228 41.0449 91.673 40.7402C92.2231 40.4355 92.659 40.0632 92.9806 39.623C93.3107 39.1829 93.4884 38.7555 93.5138 38.3408L94.5167 39.4707C94.4575 39.8262 94.2967 40.2197 94.0343 40.6514C93.7719 41.083 93.4207 41.4977 92.9806 41.8955C92.549 42.2848 92.0327 42.6107 91.4318 42.873C90.8393 43.127 90.1707 43.2539 89.4259 43.2539C88.4949 43.2539 87.6782 43.0719 86.9757 42.708C86.2817 42.3441 85.74 41.8574 85.3507 41.248C84.9698 40.6302 84.7794 39.9404 84.7794 39.1787C84.7794 38.4424 84.9233 37.7949 85.2111 37.2363C85.4988 36.6693 85.9135 36.1995 86.4552 35.8271C86.9969 35.4463 87.6486 35.1585 88.4103 34.9639C89.172 34.7692 90.0226 34.6719 90.962 34.6719H93.6915ZM101.677 32.1963V43H99.3282V29.2637H101.55L101.677 32.1963ZM101.118 35.6113L100.141 35.5732C100.149 34.6338 100.289 33.7663 100.56 32.9707C100.831 32.1667 101.211 31.4684 101.702 30.876C102.193 30.2835 102.777 29.8265 103.454 29.5049C104.14 29.1748 104.897 29.0098 105.727 29.0098C106.404 29.0098 107.013 29.1029 107.555 29.2891C108.096 29.4668 108.558 29.7546 108.939 30.1523C109.328 30.5501 109.624 31.0664 109.827 31.7012C110.03 32.3275 110.132 33.0934 110.132 33.999V43H107.771V33.9736C107.771 33.2542 107.665 32.6787 107.453 32.2471C107.242 31.807 106.933 31.4896 106.526 31.2949C106.12 31.0918 105.621 30.9902 105.028 30.9902C104.444 30.9902 103.911 31.113 103.429 31.3584C102.955 31.6038 102.544 31.9424 102.197 32.374C101.859 32.8057 101.592 33.3008 101.398 33.8594C101.211 34.4095 101.118 34.9935 101.118 35.6113ZM122.599 29.2637H124.732V42.708C124.732 43.9183 124.486 44.9508 123.995 45.8057C123.504 46.6605 122.819 47.3079 121.939 47.748C121.067 48.1966 120.06 48.4209 118.917 48.4209C118.443 48.4209 117.885 48.3447 117.241 48.1924C116.607 48.0485 115.98 47.7988 115.362 47.4434C114.753 47.0964 114.241 46.6266 113.826 46.0342L115.058 44.6377C115.633 45.3317 116.234 45.8141 116.86 46.085C117.495 46.3558 118.122 46.4912 118.739 46.4912C119.484 46.4912 120.127 46.3516 120.669 46.0723C121.211 45.793 121.63 45.3783 121.926 44.8281C122.231 44.2865 122.383 43.6178 122.383 42.8223V32.2852L122.599 29.2637ZM113.141 36.2842V36.0176C113.141 34.9681 113.263 34.016 113.509 33.1611C113.763 32.2979 114.123 31.5573 114.588 30.9395C115.062 30.3216 115.633 29.8477 116.302 29.5176C116.97 29.179 117.724 29.0098 118.562 29.0098C119.425 29.0098 120.178 29.1621 120.821 29.4668C121.473 29.763 122.023 30.1989 122.472 30.7744C122.929 31.3415 123.289 32.027 123.551 32.8311C123.813 33.6351 123.995 34.5449 124.097 35.5605V36.7285C124.004 37.7357 123.822 38.6413 123.551 39.4453C123.289 40.2493 122.929 40.9349 122.472 41.502C122.023 42.069 121.473 42.5049 120.821 42.8096C120.17 43.1058 119.408 43.2539 118.536 43.2539C117.715 43.2539 116.97 43.0804 116.302 42.7334C115.642 42.3864 115.075 41.8997 114.601 41.2734C114.127 40.6471 113.763 39.9108 113.509 39.0645C113.263 38.2096 113.141 37.2829 113.141 36.2842ZM115.489 36.0176V36.2842C115.489 36.9697 115.557 37.613 115.693 38.2139C115.836 38.8148 116.052 39.3438 116.34 39.8008C116.636 40.2578 117.013 40.6175 117.47 40.8799C117.927 41.1338 118.473 41.2607 119.108 41.2607C119.886 41.2607 120.529 41.0957 121.037 40.7656C121.545 40.4355 121.947 39.9997 122.243 39.458C122.548 38.9163 122.785 38.3281 122.954 37.6934V34.6338C122.861 34.1683 122.717 33.7197 122.523 33.2881C122.336 32.848 122.091 32.4587 121.786 32.1201C121.49 31.7731 121.122 31.498 120.682 31.2949C120.242 31.0918 119.725 30.9902 119.133 30.9902C118.49 30.9902 117.935 31.1257 117.47 31.3965C117.013 31.6589 116.636 32.0228 116.34 32.4883C116.052 32.9453 115.836 33.4785 115.693 34.0879C115.557 34.6888 115.489 35.332 115.489 36.0176ZM136.399 40.6514V33.5801C136.399 33.0384 136.289 32.5687 136.068 32.1709C135.857 31.7646 135.535 31.4515 135.104 31.2314C134.672 31.0114 134.139 30.9014 133.504 30.9014C132.912 30.9014 132.391 31.0029 131.943 31.2061C131.502 31.4092 131.155 31.6758 130.901 32.0059C130.656 32.3359 130.533 32.6914 130.533 33.0723H128.185C128.185 32.5814 128.312 32.0947 128.566 31.6123C128.819 31.1299 129.183 30.694 129.657 30.3047C130.14 29.9069 130.715 29.5938 131.384 29.3652C132.061 29.1283 132.814 29.0098 133.644 29.0098C134.642 29.0098 135.523 29.179 136.284 29.5176C137.054 29.8561 137.655 30.3682 138.087 31.0537C138.527 31.7308 138.747 32.5814 138.747 33.6055V40.0039C138.747 40.4609 138.785 40.9476 138.861 41.4639C138.946 41.9801 139.069 42.4245 139.23 42.7969V43H136.779C136.661 42.7292 136.568 42.3695 136.5 41.9209C136.432 41.4639 136.399 41.0407 136.399 40.6514ZM136.805 34.6719L136.83 36.3223H134.456C133.788 36.3223 133.191 36.3773 132.666 36.4873C132.141 36.5889 131.701 36.7454 131.346 36.957C130.99 37.1686 130.72 37.4352 130.533 37.7568C130.347 38.07 130.254 38.4382 130.254 38.8613C130.254 39.293 130.351 39.6865 130.546 40.042C130.741 40.3975 131.033 40.681 131.422 40.8926C131.82 41.0957 132.306 41.1973 132.882 41.1973C133.601 41.1973 134.236 41.0449 134.786 40.7402C135.336 40.4355 135.772 40.0632 136.094 39.623C136.424 39.1829 136.602 38.7555 136.627 38.3408L137.63 39.4707C137.571 39.8262 137.41 40.2197 137.148 40.6514C136.885 41.083 136.534 41.4977 136.094 41.8955C135.662 42.2848 135.146 42.6107 134.545 42.873C133.953 43.127 133.284 43.2539 132.539 43.2539C131.608 43.2539 130.791 43.0719 130.089 42.708C129.395 42.3441 128.853 41.8574 128.464 41.248C128.083 40.6302 127.893 39.9404 127.893 39.1787C127.893 38.4424 128.037 37.7949 128.324 37.2363C128.612 36.6693 129.027 36.1995 129.568 35.8271C130.11 35.4463 130.762 35.1585 131.524 34.9639C132.285 34.7692 133.136 34.6719 134.075 34.6719H136.805ZM144.79 32.1963V43H142.442V29.2637H144.663L144.79 32.1963ZM144.232 35.6113L143.254 35.5732C143.262 34.6338 143.402 33.7663 143.673 32.9707C143.944 32.1667 144.325 31.4684 144.816 30.876C145.306 30.2835 145.89 29.8265 146.568 29.5049C147.253 29.1748 148.011 29.0098 148.84 29.0098C149.517 29.0098 150.126 29.1029 150.668 29.2891C151.21 29.4668 151.671 29.7546 152.052 30.1523C152.441 30.5501 152.737 31.0664 152.941 31.7012C153.144 32.3275 153.245 33.0934 153.245 33.999V43H150.884V33.9736C150.884 33.2542 150.778 32.6787 150.567 32.2471C150.355 31.807 150.046 31.4896 149.64 31.2949C149.234 31.0918 148.734 30.9902 148.142 30.9902C147.558 30.9902 147.025 31.113 146.542 31.3584C146.068 31.6038 145.658 31.9424 145.311 32.374C144.972 32.8057 144.706 33.3008 144.511 33.8594C144.325 34.4095 144.232 34.9935 144.232 35.6113Z" fill="white"/>
<path fill-rule="evenodd" clip-rule="evenodd" d="M2.88889 5C2.38792 5 1.90748 5.21824 1.55324 5.60671C1.19901 5.99518 1 6.52205 1 7.07143V31.9286C1 32.4779 1.19901 33.0048 1.55324 33.3933C1.90748 33.7818 2.38792 34 2.88889 34H16.1111C16.6121 34 17.0925 33.7818 17.4468 33.3933C17.801 33.0048 18 32.4779 18 31.9286V7.07143C18 6.52205 17.801 5.99518 17.4468 5.60671C17.0925 5.21824 16.6121 5 16.1111 5H2.88889ZM16.1111 7.07143H2.88889V16.3929H16.1111V7.07143ZM6.9245 20.1587C6.9245 20.6082 6.76166 21.0394 6.47181 21.3572C6.18196 21.6751 5.78883 21.8537 5.37892 21.8537C4.969 21.8537 4.57588 21.6751 4.28602 21.3572C3.99617 21.0394 3.83333 20.6082 3.83333 20.1587C3.83333 19.7092 3.99617 19.2781 4.28602 18.9602C4.57588 18.6423 4.969 18.4638 5.37892 18.4638C5.78883 18.4638 6.18196 18.6423 6.47181 18.9602C6.76166 19.2781 6.9245 19.7092 6.9245 20.1587ZM9.5 21.8542C9.90991 21.8542 10.303 21.6756 10.5929 21.3577C10.8827 21.0399 11.0456 20.6088 11.0456 20.1592C11.0456 19.7097 10.8827 19.2786 10.5929 18.9607C10.303 18.6429 9.90991 18.4643 9.5 18.4643C9.09009 18.4643 8.69696 18.6429 8.40711 18.9607C8.11725 19.2786 7.95442 19.7097 7.95442 20.1592C7.95442 20.6088 8.11725 21.0399 8.40711 21.3577C8.69696 21.6756 9.09009 21.8542 9.5 21.8542ZM15.1667 20.1587C15.1667 20.6082 15.0038 21.0394 14.714 21.3572C14.4241 21.6751 14.031 21.8537 13.6211 21.8537C13.2112 21.8537 12.818 21.6751 12.5282 21.3572C12.2383 21.0394 12.0755 20.6082 12.0755 20.1587C12.0755 19.7092 12.2383 19.2781 12.5282 18.9602C12.818 18.6423 13.2112 18.4638 13.6211 18.4638C14.031 18.4638 14.4241 18.6423 14.714 18.9602C15.0038 19.2781 15.1667 19.7092 15.1667 20.1587V20.1587ZM5.37844 26.373C5.58135 26.373 5.78227 26.3292 5.96973 26.244C6.15719 26.1589 6.32753 26.0341 6.471 25.8767C6.61448 25.7194 6.72829 25.5326 6.80594 25.327C6.88359 25.1214 6.92355 24.9011 6.92355 24.6786C6.92355 24.4561 6.88359 24.2357 6.80594 24.0301C6.72829 23.8246 6.61448 23.6378 6.471 23.4804C6.32753 23.3231 6.15719 23.1983 5.96973 23.1131C5.78227 23.028 5.58135 22.9841 5.37844 22.9841C4.96866 22.9841 4.57565 23.1627 4.28589 23.4804C3.99612 23.7982 3.83333 24.2292 3.83333 24.6786C3.83333 25.128 3.99612 25.5589 4.28589 25.8767C4.57565 26.1945 4.96866 26.373 5.37844 26.373ZM11.0451 24.6786C11.0451 25.1281 10.8823 25.5592 10.5924 25.8771C10.3026 26.1949 9.90944 26.3735 9.49953 26.3735C9.08961 26.3735 8.69649 26.1949 8.40663 25.8771C8.11678 25.5592 7.95395 25.1281 7.95395 24.6786C7.95395 24.229 8.11678 23.7979 8.40663 23.4801C8.69649 23.1622 9.08961 22.9836 9.49953 22.9836C9.90944 22.9836 10.3026 23.1622 10.5924 23.4801C10.8823 23.7979 11.0451 24.229 11.0451 24.6786ZM13.6216 26.373C13.8245 26.373 14.0254 26.3292 14.2128 26.244C14.4003 26.1589 14.5706 26.0341 14.7141 25.8767C14.8576 25.7194 14.9714 25.5326 15.0491 25.327C15.1267 25.1214 15.1667 24.9011 15.1667 24.6786C15.1667 24.4561 15.1267 24.2357 15.0491 24.0301C14.9714 23.8246 14.8576 23.6378 14.7141 23.4804C14.5706 23.3231 14.4003 23.1983 14.2128 23.1131C14.0254 23.028 13.8245 22.9841 13.6216 22.9841C13.2118 22.9841 12.8188 23.1627 12.529 23.4804C12.2392 23.7982 12.0764 24.2292 12.0764 24.6786C12.0764 25.128 12.2392 25.5589 12.529 25.8767C12.8188 26.1945 13.2118 26.373 13.6216 26.373ZM15.1667 29.1984C15.1667 29.648 15.0038 30.0791 14.714 30.3969C14.4241 30.7148 14.031 30.8934 13.6211 30.8934C13.2112 30.8934 12.818 30.7148 12.5282 30.3969C12.2383 30.0791 12.0755 29.648 12.0755 29.1984C12.0755 28.7489 12.2383 28.3178 12.5282 27.9999C12.818 27.6821 13.2112 27.5035 13.6211 27.5035C14.031 27.5035 14.4241 27.6821 14.714 27.9999C15.0038 28.3178 15.1667 28.7489 15.1667 29.1984V29.1984ZM5.37844 27.503C4.96853 27.503 4.5754 27.6815 4.28555 27.9994C3.9957 28.3173 3.83286 28.7484 3.83286 29.1979C3.83286 29.6474 3.9957 30.0786 4.28555 30.3964C4.5754 30.7143 4.96853 30.8929 5.37844 30.8929H9.5C9.90991 30.8929 10.303 30.7143 10.5929 30.3964C10.8827 30.0786 11.0456 29.6474 11.0456 29.1979C11.0456 28.7484 10.8827 28.3173 10.5929 27.9994C10.303 27.6815 9.90991 27.503 9.5 27.503H5.37844V27.503Z" fill="white"/>
<path d="M19.6977 39.4615C21.9168 39.4615 24.1628 38.7217 24.1628 37.3077C24.1628 35.8937 21.9168 35.1538 19.6977 35.1538C17.4785 35.1538 15.2325 35.8937 15.2325 37.3077C15.2325 38.7217 17.4785 39.4615 19.6977 39.4615Z" fill="white"/>
<path d="M15.2325 39.4616C15.2325 40.8756 17.4785 41.6154 19.6977 41.6154C21.9168 41.6154 24.1628 40.8756 24.1628 39.4616V38.3846C24.1628 39.7986 21.9168 40.5385 19.6977 40.5385C17.4785 40.5385 15.2325 39.7986 15.2325 38.3846V39.4616Z" fill="white"/>
<path d="M15.2325 41.6154C15.2325 43.0294 17.4785 43.7692 19.6977 43.7692C21.9168 43.7692 24.1628 43.0294 24.1628 41.6154V40.5385C24.1628 41.9525 21.9168 42.6923 19.6977 42.6923C17.4785 42.6923 15.2325 41.9525 15.2325 40.5385V41.6154Z" fill="white"/>
<path d="M15.2325 43.7692C15.2325 45.1832 17.4785 45.923 19.6977 45.923C21.9168 45.923 24.1628 45.1832 24.1628 43.7692V42.6923C24.1628 44.1063 21.9168 44.8461 19.6977 44.8461C17.4785 44.8461 15.2325 44.1063 15.2325 42.6923V43.7692Z" fill="white"/>
<path d="M26.3953 31.3846C28.6145 31.3846 30.8604 30.6448 30.8604 29.2308C30.8604 27.8168 28.6145 27.0769 26.3953 27.0769C24.1761 27.0769 21.9302 27.8168 21.9302 29.2308C21.9302 30.6448 24.1761 31.3846 26.3953 31.3846Z" fill="white"/>
<path d="M21.9302 31.3847C21.9302 32.7987 24.1761 33.5385 26.3953 33.5385C28.6145 33.5385 30.8604 32.7987 30.8604 31.3847V30.3077C30.8604 31.7217 28.6145 32.4616 26.3953 32.4616C24.1761 32.4616 21.9302 31.7217 21.9302 30.3077V31.3847Z" fill="white"/>
<path d="M21.9302 33.5385C21.9302 34.9525 24.1761 35.6923 26.3953 35.6923C28.6145 35.6923 30.8604 34.9525 30.8604 33.5385V32.4615C30.8604 33.8755 28.6145 34.6154 26.3953 34.6154C24.1761 34.6154 21.9302 33.8755 21.9302 32.4615V33.5385Z" fill="white"/>
<path d="M21.9302 35.6923C21.9302 37.1063 24.1761 37.8461 26.3953 37.8461C28.6145 37.8461 30.8604 37.1063 30.8604 35.6923V34.6154C30.8604 36.0294 28.6145 36.7692 26.3953 36.7692C24.1761 36.7692 21.9302 36.0294 21.9302 34.6154V35.6923Z" fill="white"/>
<path d="M30.3023 41.6153C32.5214 41.6153 34.7674 40.8755 34.7674 39.4615C34.7674 38.0475 32.5214 37.3076 30.3023 37.3076C28.0831 37.3076 25.8372 38.0475 25.8372 39.4615C25.8372 40.8755 28.0831 41.6153 30.3023 41.6153Z" fill="white"/>
<path d="M25.8372 41.6154C25.8372 43.0294 28.0831 43.7692 30.3023 43.7692C32.5214 43.7692 34.7674 43.0294 34.7674 41.6154V40.5385C34.7674 41.9525 32.5214 42.6923 30.3023 42.6923C28.0831 42.6923 25.8372 41.9525 25.8372 40.5385V41.6154Z" fill="white"/>
<path d="M25.8372 43.7692C25.8372 45.1832 28.0831 45.923 30.3023 45.923C32.5214 45.923 34.7674 45.1832 34.7674 43.7692V42.6923C34.7674 44.1063 32.5214 44.8461 30.3023 44.8461C28.0831 44.8461 25.8372 44.1063 25.8372 42.6923V43.7692Z" fill="white"/>
</g>
<defs>
<clipPath id="clip0_8_27">
<rect width="155" height="50" fill="white"/>
</clipPath>
</defs>
</svg>
